<svg width="317" height="51" viewBox="0 0 317 51" fill="none" xmlns="http://www.w3.org/2000/svg">
<path d="M47.8252 14.1464C54.1762 14.1465 59.3241 19.3134 59.3242 25.6904C59.3242 26.8986 58.3873 27.7724 57.3184 27.7724H54.5771C53.441 27.7724 52.5723 26.8986 52.5723 25.6904C52.5721 23.0729 50.4332 20.9268 47.8252 20.9267H46.3545C43.7476 20.9267 41.6085 23.0729 41.6084 25.6904V38.041C41.6084 40.6586 43.7476 42.874 46.3545 42.874H47.8252C50.4333 42.8739 52.5723 40.6586 52.5723 38.041C52.5725 36.9004 53.4412 35.9599 54.5771 35.9599H57.3184C58.3871 35.96 59.324 36.9005 59.3242 38.041C59.3242 44.4844 54.1763 49.7196 47.8252 49.7197H46.3545C40.0045 49.7197 34.8564 44.4844 34.8564 38.041V25.6904C34.8566 19.3133 40.0046 14.1464 46.3545 14.1464H47.8252ZM74.2871 1.19141C75.356 1.19141 76.3592 2.06452 76.3594 3.1377V16.1582H87.8584C88.9932 16.1584 89.9286 17.0994 89.9287 18.2412V20.9267C89.9285 22.0661 88.9931 23.0056 87.8584 23.0058H76.3594V38.041C76.3594 40.6586 78.4323 42.874 81.1064 42.874C83.7133 42.8738 85.8506 40.6585 85.8506 38.041V36.6982C85.8507 35.5575 86.7872 34.6181 87.8584 34.6181H90.5986C91.7345 34.6184 92.6698 35.5576 92.6699 36.6982V38.041C92.6699 44.4843 87.4563 49.7195 81.1064 49.7197C74.6893 49.7197 69.541 44.4844 69.541 38.041V23.0058H66.0645C64.9956 23.0058 64.0588 22.0662 64.0586 20.9267V18.2412C64.0587 17.0993 64.9956 16.1582 66.0645 16.1582H69.541V3.1377C69.5412 2.06457 70.4098 1.19149 71.5469 1.19141H74.2871ZM171.399 14.1464C177.749 14.1465 182.897 19.3135 182.897 25.6904V38.041C182.897 44.4844 177.749 49.7196 171.399 49.7197H169.929C163.578 49.7197 158.431 44.4844 158.431 38.041V25.6904C158.431 19.3134 163.578 14.1464 169.929 14.1464H171.399ZM18.6611 1.19141C19.5968 1.19141 20.4674 1.79591 20.6689 2.66797L27.8203 29.9189L27.8867 30.3222V46.9013C27.8867 48.1094 26.9516 48.9812 25.8145 48.9814H23.0732C22.0055 48.9814 21.0684 48.1095 21.0684 46.9013V33.9472H7.43262V46.9013C7.43262 48.1094 6.49558 48.9812 5.42676 48.9814H2.68555C1.54943 48.9814 0.613281 48.1095 0.613281 46.9013V30.3222L0.680664 29.9189L7.83301 2.66797C8.03348 1.79596 8.90222 1.19141 9.83789 1.19141H18.6611ZM111.909 14.8183C112.98 14.8183 113.981 15.7565 113.981 16.831V42.1347H121.469C122.539 42.135 123.475 43.075 123.475 44.2168V46.9013C123.475 48.1094 122.539 48.9812 121.469 48.9814H99.75C98.6129 48.9812 97.6777 48.1094 97.6777 46.9013V44.2168C97.6777 43.0749 98.6129 42.1349 99.75 42.1347H107.163V21.664H102.491C101.355 21.6638 100.419 20.7238 100.419 19.582V16.831C100.419 15.7567 101.355 14.8186 102.491 14.8183H111.909ZM130.305 14.8183C131.04 14.8183 131.975 15.4212 132.243 16.1582L139.53 40.0556L147.553 16.1582C147.819 15.4211 148.688 14.8184 149.49 14.8183H152.366C153.836 14.8184 154.772 16.0925 154.304 17.5693L143.741 47.6396C143.541 48.3105 142.673 48.9813 141.87 48.9814H137.191C136.39 48.9814 135.519 48.3106 135.318 47.6396L124.758 17.5693C124.29 16.0925 125.224 14.8183 126.696 14.8183H130.305ZM169.928 20.9257C167.321 20.926 165.183 23.0731 165.183 25.6904V38.041C165.183 40.6584 167.321 42.8737 169.928 42.874H171.399C174.006 42.8737 176.145 40.6584 176.145 38.041V25.6904C176.144 23.0731 174.006 20.926 171.399 20.9257H169.928ZM8.50098 27.1679H19.999L15.0518 7.9707H13.4492L8.50098 27.1679ZM112.577 1.19141C113.714 1.19141 114.583 2.06452 114.583 3.1377V8.6416C114.583 9.78236 113.714 10.7226 112.577 10.7226H107.163C106.027 10.7223 105.092 9.78214 105.092 8.6416V3.1377C105.092 2.06472 106.027 1.19174 107.163 1.19141H112.577Z" fill="#00B9FF"/>
<path d="M236.056 14.1474C242.005 14.1477 247.554 18.2422 247.554 25.0879V41.4658C247.554 41.8005 247.889 42.1355 248.289 42.1357C249.358 42.136 250.294 43.075 250.294 44.2168V46.9023C250.294 48.1101 249.358 48.9821 248.289 48.9824H246.885C245.148 48.9824 243.611 48.2433 242.474 47.1015C240.133 48.7131 237.326 49.7204 234.587 49.7207H233.249C227.566 49.7207 223.088 45.6259 223.088 40.122V38.7129C223.088 32.0021 228.436 29.9191 232.914 28.5771C234.052 28.2421 240.802 27.2335 240.802 24.75C240.801 22.4025 239.063 20.9269 236.056 20.9267H235.32C232.713 20.9269 230.574 23.0739 230.574 25.6914C230.574 26.8993 229.637 27.7721 228.503 27.7724H225.829C224.693 27.7724 223.756 26.8995 223.756 25.6914C223.756 19.3143 228.902 14.1476 235.32 14.1474H236.056ZM203.98 1.17676C210.399 1.17676 215.548 6.27963 215.548 12.7265V16.8222C215.548 19.9094 214.412 22.5941 212.538 24.6767C214.814 26.8245 216.284 29.9134 216.284 33.2705V37.3662C216.284 43.7457 211.068 48.9824 204.716 48.9824H193.08C192.012 48.982 191.074 48.1088 191.074 46.9023V3.125C191.074 2.04961 192.011 1.17718 193.08 1.17676H203.98ZM269.865 14.1474C276.216 14.1474 281.429 19.3142 281.429 25.6914V46.9023C281.428 48.1103 280.56 48.9824 279.358 48.9824H276.684C275.615 48.9824 274.613 48.1103 274.612 46.9023V25.6914C274.612 23.0738 272.539 20.9267 269.865 20.9267H268.529C265.922 20.9267 263.716 23.0738 263.716 25.6914V46.9023C263.716 48.1102 262.846 48.9823 261.71 48.9824H258.97C257.9 48.9824 256.897 48.1103 256.896 46.9023V16.831C256.897 15.7578 257.9 14.8183 258.97 14.8183H261.71C262.245 14.8184 262.846 15.0195 263.181 15.4218C264.785 14.5497 266.591 14.1474 268.529 14.1474H269.865ZM294.269 1.19141C295.406 1.19141 296.275 2.06535 296.275 3.13867V26.3633L307.238 15.4218C307.506 15.087 308.24 14.8183 308.709 14.8183H312.519C314.525 14.8186 315.393 16.8985 313.923 18.3066L302.893 29.3828L315.861 45.6259C316.997 47.1016 316.129 48.9823 314.258 48.9824H310.714C310.246 48.9824 309.511 48.58 309.177 48.1777L298.08 34.2832L296.275 36.0283V46.9023C296.275 48.1103 295.405 48.9824 294.269 48.9824H291.528C290.459 48.9824 289.524 48.1103 289.523 46.9023V3.13867C289.523 2.06535 290.459 1.19141 291.528 1.19141H294.269ZM240.802 32.1347C237.727 33.6789 235.387 33.7462 232.847 34.8867C230.842 35.6914 229.839 37.3023 229.839 38.7129V39.7861C229.839 41.0629 230.842 42.875 233.249 42.875H234.586C237.927 42.8748 240.802 40.9269 240.802 38.042V32.1347ZM197.894 42.1338H204.716C207.324 42.1338 209.463 40.0524 209.463 37.3662V33.2705C209.463 30.5844 207.324 28.5029 204.716 28.5029H197.894V42.1338ZM197.894 21.6552H203.98C206.656 21.6552 208.727 19.4397 208.727 16.8222V12.7265C208.727 10.1066 206.656 7.95899 203.98 7.95899H197.894V21.6552Z" fill="black"/>
</svg>
